<?xml version="1.0" standalone="no"?>
<!DOCTYPE svg PUBLIC "-//W3C//DTD SVG 20010904//EN"
 "http://www.w3.org/TR/2001/REC-SVG-20010904/DTD/svg10.dtd">
<svg version="1.0" xmlns="http://www.w3.org/2000/svg"
 width="4000.000000pt" height="1200.000000pt" viewBox="0 0 4000.000000 1200.000000"
 preserveAspectRatio="xMidYMid meet">

<g transform="translate(0.000000,1200.000000) scale(0.100000,-0.100000)"
fill="#000000" stroke="none">
<path d="M4090 10713 c-44 -18 -120 -91 -120 -114 0 -10 -4 -21 -10 -24 -6 -4
-10 -195 -10 -540 0 -345 4 -536 10 -540 6 -3 10 -14 10 -24 0 -24 57 -86 103
-111 37 -20 51 -20 797 -20 752 0 760 0 797 21 54 30 80 56 103 104 19 40 20
61 20 569 0 506 -1 528 -20 566 -29 56 -60 87 -114 110 -47 20 -64 20 -789 19
-636 -1 -747 -3 -777 -16z m475 -709 c54 -41 75 -86 75 -159 0 -62 -1 -65 -47
-115 -53 -57 -105 -76 -171 -64 -106 20 -176 129 -149 232 14 56 80 128 123
135 60 10 135 -3 169 -29z m811 2 c64 -44 91 -109 78 -193 -10 -65 -81 -137
-146 -146 -44 -6 -116 5 -127 20 -3 4 -15 13 -26 19 -11 6 -25 20 -30 31 -6
12 -17 28 -24 37 -22 26 -17 130 9 171 26 42 75 81 110 88 49 10 119 -2 156
-27z"/>
<path d="M9963 10553 c-10 -4 -13 -133 -13 -599 l0 -594 498 2 497 3 0 130 0
130 -315 5 -315 5 -3 109 c-2 81 1 112 10 118 7 4 138 8 291 8 l278 0 -3 133
-3 132 -285 5 -285 5 -3 67 -3 68 308 2 308 3 0 135 0 135 -475 2 c-261 1
-481 -1 -487 -4z"/>
<path d="M15506 10551 c-4 -5 -6 -274 -6 -598 l0 -588 160 -3 160 -2 -2 597
-3 598 -152 3 c-89 1 -154 -1 -157 -7z"/>
<path d="M18287 10553 c-4 -3 -7 -96 -7 -205 0 -118 -4 -198 -9 -198 -6 0 -29
13 -53 28 -103 67 -266 70 -368 6 -125 -78 -180 -196 -180 -389 0 -158 43
-286 122 -367 41 -41 106 -78 137 -78 11 0 23 -4 26 -10 10 -17 106 -11 169
10 71 24 122 55 143 86 26 41 43 30 43 -26 l0 -50 150 0 150 0 0 594 c0 532
-2 594 -16 600 -21 8 -299 8 -307 -1z m-75 -575 c50 -35 68 -86 68 -191 0 -97
-11 -140 -47 -183 -43 -51 -116 -59 -170 -18 -51 39 -66 83 -66 200 0 92 2
106 26 146 45 77 120 95 189 46z"/>
<path d="M11355 10215 c-76 -15 -111 -30 -153 -61 -75 -58 -106 -154 -82 -255
10 -41 24 -64 61 -101 26 -26 57 -48 68 -48 11 0 22 -4 26 -9 3 -6 26 -13 50
-17 25 -3 48 -10 51 -15 3 -5 24 -9 46 -9 23 0 55 -4 72 -9 17 -5 60 -16 95
-23 50 -10 68 -19 85 -41 19 -26 19 -30 5 -55 -30 -54 -123 -77 -194 -48 -20
9 -48 34 -67 61 -33 47 -33 47 -78 40 -46 -8 -115 -12 -207 -14 -46 -1 -53 -4
-53 -21 0 -61 99 -183 173 -214 81 -33 356 -59 401 -37 12 5 40 12 63 15 55 8
127 39 173 76 108 86 120 272 24 362 -69 63 -119 79 -374 117 -31 5 -67 12
-80 16 -102 31 -67 125 46 125 64 0 101 -13 132 -46 24 -25 75 -33 87 -13 4 5
39 10 78 10 99 0 134 3 142 11 10 10 -37 88 -75 125 -42 41 -103 70 -174 83
-79 13 -266 11 -341 -5z"/>
<path d="M12450 10216 c-132 -29 -248 -116 -297 -223 -63 -137 -54 -352 19
-461 70 -103 152 -155 290 -184 70 -15 260 -15 321 0 81 20 171 68 216 118 39
42 109 169 99 179 -2 3 -56 9 -119 15 -63 5 -128 12 -146 16 -29 5 -34 2 -57
-35 -33 -52 -89 -81 -156 -81 -57 0 -81 10 -123 49 -42 39 -57 83 -56 170 1
84 13 127 47 166 28 32 96 64 137 65 51 0 118 -40 139 -83 17 -36 21 -38 50
-33 17 4 59 10 94 13 34 3 65 10 68 14 3 5 25 9 49 9 24 0 47 5 50 10 12 19
-43 119 -92 167 -44 44 -70 60 -143 92 -73 31 -284 40 -390 17z"/>
<path d="M14680 10219 c-25 -6 -77 -25 -116 -45 -170 -83 -253 -254 -225 -465
13 -100 48 -177 110 -242 89 -94 193 -130 376 -130 173 0 269 27 356 101 40
34 119 142 119 161 0 6 -21 11 -47 12 -97 2 -169 6 -216 14 -40 6 -51 5 -70
-12 -47 -41 -76 -53 -132 -53 -56 0 -82 9 -123 44 -22 19 -52 70 -52 88 0 4
145 8 323 8 178 0 328 4 337 10 12 7 12 23 2 107 -19 151 -40 201 -121 286
-55 58 -140 100 -232 116 -77 13 -225 13 -289 0z m194 -216 c52 -8 116 -71
116 -113 l0 -30 -159 0 c-97 0 -162 4 -166 10 -4 6 4 29 17 53 16 29 37 49 68
64 49 24 65 26 124 16z"/>
<path d="M16316 10219 c-141 -23 -241 -105 -277 -227 -7 -23 -10 -45 -7 -48 3
-3 55 -9 114 -14 60 -5 124 -12 141 -16 29 -6 37 -2 77 39 38 40 50 46 101 52
70 9 129 -7 151 -40 34 -52 0 -75 -163 -109 -241 -52 -291 -65 -343 -93 -120
-63 -147 -230 -53 -333 54 -60 122 -88 237 -97 98 -8 221 35 294 101 56 52 71
51 72 -1 0 -12 5 -34 12 -48 l11 -25 149 0 c154 0 159 2 136 43 -9 16 -15 106
-18 307 -5 249 -8 291 -25 330 -44 105 -108 153 -232 175 -84 15 -298 18 -377
4z m314 -503 c0 -62 -25 -101 -82 -130 -102 -51 -218 -27 -218 45 0 22 8 34
33 49 17 11 41 20 53 20 11 0 24 3 28 7 6 7 135 37 174 42 7 0 12 -12 12 -33z"/>
<path d="M19120 10215 c-75 -17 -102 -29 -168 -74 -62 -42 -121 -119 -148
-191 -25 -71 -30 -207 -9 -292 30 -127 133 -252 235 -287 93 -33 313 -52 354
-32 12 5 41 12 66 16 66 8 142 49 198 105 59 59 108 138 89 146 -7 2 -55 6
-107 8 -52 2 -115 7 -140 11 -41 6 -50 4 -99 -29 -45 -30 -62 -36 -107 -36
-73 0 -128 28 -154 80 -11 21 -20 44 -20 49 0 7 112 12 328 13 l327 3 -2 100
c-1 84 -6 111 -29 170 -32 82 -111 168 -185 203 -99 48 -306 66 -429 37z m249
-230 c33 -17 76 -88 67 -111 -4 -11 -37 -14 -160 -14 -97 0 -157 4 -161 11 -8
13 18 70 42 92 53 47 145 57 212 22z"/>
<path d="M13262 9878 c3 -303 5 -337 23 -382 49 -120 215 -195 344 -155 98 31
120 42 163 84 26 25 52 45 58 45 6 0 10 -24 10 -55 l0 -55 155 0 155 0 -2 423
-3 422 -160 0 -160 0 -5 -260 c-6 -288 -9 -307 -73 -345 -41 -25 -83 -25 -124
0 -56 34 -58 42 -63 335 l-5 270 -158 3 -158 3 3 -333z"/>
<path d="M3375 9165 c-99 -23 -147 -48 -204 -105 -55 -55 -81 -117 -81 -192 0
-29 -4 -48 -11 -48 -7 0 -33 16 -60 35 -78 56 -163 96 -269 127 -146 42 -404
32 -535 -22 -16 -7 -41 -17 -55 -22 -14 -6 -34 -15 -45 -21 -11 -6 -29 -15
-40 -21 -41 -22 -91 -61 -136 -105 -50 -50 -119 -151 -119 -175 0 -8 -4 -17
-10 -21 -5 -3 -14 -32 -21 -65 -6 -33 -16 -60 -20 -60 -5 0 -9 -22 -9 -50 0
-27 4 -50 9 -50 4 0 14 -27 21 -60 7 -33 17 -63 21 -66 5 -3 9 -12 9 -21 0
-17 81 -135 120 -173 38 -39 148 -113 212 -143 l58 -28 2 -449 3 -450 233 -3
c226 -2 232 -1 233 18 0 11 0 201 -1 422 -2 394 -1 402 19 422 12 12 29 21 39
21 23 0 137 42 189 70 23 13 65 40 93 62 28 21 55 36 61 33 5 -4 9 -102 9
-235 0 -142 4 -231 10 -235 6 -3 10 -15 10 -25 0 -10 7 -25 15 -34 8 -8 15
-18 15 -22 0 -12 73 -77 101 -90 54 -26 96 -43 134 -53 28 -8 468 -11 1465
-11 1245 0 1429 2 1454 15 15 8 35 15 42 15 45 0 153 76 190 135 40 62 44 92
44 353 0 222 2 252 16 252 8 0 27 -14 41 -31 26 -31 126 -109 139 -109 4 0 15
-6 23 -13 9 -8 43 -24 76 -36 33 -13 67 -26 75 -30 13 -7 16 -71 20 -450 l5
-442 229 0 c126 0 230 2 233 4 2 3 4 193 3 424 0 231 2 428 6 436 3 9 22 21
42 27 21 6 48 16 62 22 25 10 34 15 121 60 55 29 184 150 201 189 7 16 16 29
19 29 3 0 14 19 24 43 9 23 22 53 29 66 14 31 15 263 0 282 -6 8 -14 25 -17
39 -8 32 -74 135 -113 175 -58 61 -119 104 -209 148 -144 70 -201 82 -390 81
-187 -1 -235 -11 -390 -85 -67 -32 -96 -53 -171 -122 -29 -27 -58 -46 -63 -42
-6 3 -11 40 -11 82 0 86 -12 131 -50 184 -54 77 -124 119 -243 148 -69 16
-2832 13 -2902 -4z"/>
<path d="M9946 8648 c-3 -7 -7 -31 -11 -53 -11 -65 -21 -112 -53 -260 -57
-258 -74 -340 -83 -385 -5 -25 -17 -85 -28 -135 -20 -92 -80 -376 -100 -475
-7 -30 -16 -73 -21 -95 -19 -79 -73 -331 -81 -375 -8 -48 -14 -74 -48 -235
-12 -55 -26 -125 -32 -155 -7 -30 -18 -80 -25 -111 -8 -31 -14 -60 -14 -63 0
-3 177 -6 394 -6 l393 0 6 33 c6 28 42 197 68 312 5 22 13 63 19 90 5 28 16
82 25 120 8 39 31 147 51 240 20 94 40 188 45 210 5 22 13 63 19 90 5 28 16
82 25 120 9 39 24 113 35 165 11 52 27 127 35 165 24 105 36 166 45 210 4 22
19 94 33 160 73 341 88 417 83 431 -5 12 -65 14 -391 14 -300 0 -386 -3 -389
-12z"/>
<path d="M22406 8648 c-3 -7 -7 -29 -10 -48 -3 -19 -17 -89 -32 -155 -14 -66
-30 -142 -35 -170 -4 -27 -11 -60 -15 -72 l-6 -23 396 0 c218 0 396 3 396 6 0
3 11 60 25 127 52 248 65 321 61 334 -8 19 -775 19 -780 1z"/>
<path d="M28405 8648 c-5 -15 -41 -189 -56 -268 -15 -79 -26 -130 -34 -168
l-8 -32 394 2 393 3 8 30 c4 17 19 86 33 155 14 69 30 143 35 165 5 22 11 58
12 80 l3 40 -388 3 c-305 2 -388 0 -392 -10z"/>
<path d="M11265 8016 c-173 -50 -335 -192 -408 -361 -10 -22 -24 -71 -32 -110
-8 -38 -27 -124 -41 -190 -14 -66 -30 -138 -34 -160 -4 -22 -19 -94 -33 -160
-14 -66 -40 -185 -57 -265 -36 -167 -56 -264 -70 -335 -5 -27 -14 -67 -19 -87
-5 -20 -6 -39 -3 -42 3 -4 179 -6 392 -6 l386 0 12 48 c6 26 23 106 37 177 15
72 30 146 35 165 8 31 16 73 52 245 5 28 14 68 19 90 4 22 20 96 34 165 14 69
30 141 35 161 6 20 10 45 10 56 0 33 60 112 104 138 l43 25 363 0 362 0 39
-39 c53 -53 54 -35 -27 -421 -9 -41 -20 -97 -26 -125 -22 -112 -42 -207 -118
-564 -11 -52 -20 -100 -20 -108 0 -11 67 -13 392 -11 l392 3 17 80 c9 44 24
114 33 155 20 91 55 260 66 315 4 22 20 94 34 160 65 301 79 363 87 405 4 25
15 76 24 115 50 231 -32 404 -226 475 -52 19 -84 20 -934 19 -627 -1 -891 -5
-920 -13z"/>
<path d="M14114 8016 c-148 -40 -317 -178 -383 -310 -39 -81 -45 -100 -73
-231 -30 -148 -39 -190 -99 -470 -10 -49 -27 -124 -36 -165 -10 -42 -17 -119
-17 -175 -1 -84 3 -108 23 -150 51 -109 139 -181 251 -205 39 -8 222 -10 629
-8 l575 3 14 60 c8 33 18 76 22 95 26 110 50 220 56 258 l7 42 -336 0 -336 0
-41 38 c-32 32 -40 46 -40 75 0 31 45 278 69 377 5 19 15 68 22 109 16 91 56
155 119 188 43 23 47 23 401 23 l358 0 42 -40 c55 -52 57 -27 -42 -485 -11
-49 -24 -112 -29 -140 -5 -27 -16 -81 -25 -120 -13 -61 -71 -332 -95 -450 -14
-65 -29 -98 -63 -133 -68 -72 -4 -67 -904 -70 l-812 -3 -26 -117 c-37 -167
-42 -190 -59 -261 -9 -35 -13 -68 -10 -72 3 -5 476 -9 1052 -9 1146 0 1098 -2
1227 59 165 78 289 220 330 378 17 64 63 273 75 343 5 25 22 108 39 185 17 77
36 165 42 195 6 30 19 91 29 135 10 44 23 105 29 135 9 49 47 224 72 335 25
111 31 146 36 216 12 173 -86 313 -255 365 -39 11 -191 14 -922 13 -611 -1
-887 -5 -916 -13z"/>
<path d="M16936 8014 c-26 -7 -65 -22 -85 -32 -20 -10 -51 -27 -69 -37 -54
-28 -158 -131 -201 -199 -56 -88 -68 -127 -121 -386 -40 -198 -91 -438 -106
-505 -40 -180 -38 -264 6 -358 28 -59 105 -131 178 -165 l57 -27 1081 -3 1081
-2 23 102 c42 192 61 283 67 321 l6 37 -802 0 c-865 0 -838 -2 -873 52 -8 13
-17 36 -20 52 -7 33 96 555 116 594 18 34 62 75 103 96 28 14 81 16 392 16
l360 0 35 -33 c19 -18 38 -45 41 -59 4 -14 -3 -69 -15 -124 -13 -55 -26 -117
-30 -139 -4 -22 -18 -89 -30 -149 -18 -90 -20 -110 -8 -117 14 -9 720 -12 753
-3 17 4 24 21 38 92 9 48 24 119 33 157 8 39 19 90 23 115 5 25 23 113 40 195
23 109 31 163 26 198 -19 153 -115 268 -260 314 -59 19 -1769 16 -1839 -3z"/>
<path d="M19787 8015 c-158 -44 -316 -174 -386 -320 -38 -77 -44 -99 -81 -275
-16 -80 -37 -176 -45 -215 -9 -38 -20 -92 -26 -120 -5 -27 -14 -68 -18 -90
-27 -125 -41 -191 -61 -285 -38 -180 -49 -233 -65 -305 -8 -38 -15 -78 -15
-87 0 -17 25 -18 389 -18 362 0 390 1 395 18 3 9 12 51 20 92 9 41 32 152 52
245 36 170 44 206 62 300 48 246 95 456 108 487 19 43 78 103 117 117 18 7
156 11 378 11 380 0 388 -1 424 -56 9 -14 17 -41 17 -58 0 -29 -28 -179 -52
-281 -5 -22 -21 -96 -35 -165 -14 -69 -29 -145 -35 -170 -5 -25 -21 -101 -35
-170 -29 -141 -43 -207 -56 -265 -4 -22 -11 -55 -14 -72 l-7 -33 394 0 394 0
18 88 c10 48 24 114 31 147 7 33 22 105 34 160 11 55 28 132 36 170 9 39 25
113 35 165 11 52 27 127 36 165 8 39 20 93 25 120 5 28 14 68 18 90 52 246 52
248 41 314 -26 149 -102 240 -243 292 -49 18 -90 19 -927 18 -692 -1 -885 -4
-923 -14z"/>
<path d="M22276 8022 c-3 -5 -17 -67 -31 -138 -14 -71 -31 -146 -36 -168 -6
-21 -15 -62 -20 -90 -5 -28 -13 -69 -18 -91 -14 -64 -42 -197 -51 -240 -16
-85 -52 -251 -59 -280 -5 -16 -14 -55 -20 -85 -23 -113 -82 -396 -91 -435 -15
-63 -40 -183 -40 -189 0 -4 177 -6 393 -6 l392 0 12 53 c6 28 23 108 38 177
15 69 30 141 35 160 5 19 18 82 30 140 12 58 35 168 51 245 17 77 41 192 54
255 14 63 34 156 44 205 11 50 26 124 35 165 28 132 63 295 67 310 4 13 -45
15 -388 18 -215 1 -394 -2 -397 -6z"/>
<path d="M23725 8016 c-226 -65 -412 -274 -449 -506 -3 -19 -17 -89 -31 -155
-14 -66 -30 -142 -35 -170 -5 -27 -16 -79 -24 -115 -66 -294 -70 -317 -70
-415 0 -89 4 -106 29 -158 31 -63 91 -125 152 -155 83 -43 100 -43 1197 -40
l1049 3 13 60 c8 33 18 83 24 110 6 28 22 99 35 158 14 60 23 113 20 118 -4 5
-323 9 -809 9 l-803 0 -39 34 c-38 33 -39 35 -38 97 0 35 6 87 12 114 10 44
38 179 73 355 15 74 33 113 70 150 60 59 67 60 456 60 l355 0 39 -39 c42 -42
49 -76 29 -150 -5 -20 -16 -72 -24 -116 -9 -44 -26 -130 -39 -192 -17 -79 -21
-115 -14 -122 12 -12 713 -16 753 -5 24 6 32 35 78 264 14 69 33 157 41 195
31 141 37 171 42 246 9 136 -53 261 -162 324 -95 56 -66 55 -1015 54 -624 -1
-886 -5 -915 -13z"/>
<path d="M26568 8015 c-148 -41 -316 -180 -381 -316 -37 -75 -53 -139 -118
-454 -5 -27 -14 -68 -19 -90 -15 -68 -41 -188 -51 -235 -5 -25 -20 -97 -33
-160 -14 -63 -32 -149 -41 -190 -8 -41 -24 -117 -35 -169 -11 -52 -20 -96 -20
-98 0 -1 177 -3 394 -3 l394 0 5 28 c6 37 43 211 62 297 9 39 20 93 25 120 5
28 17 82 25 120 8 39 19 93 25 120 5 28 19 93 30 145 11 52 27 127 35 165 26
123 32 143 55 181 13 20 44 49 69 65 l45 29 412 0 c317 0 414 3 422 13 5 6 13
28 16 47 10 52 45 216 62 290 8 36 17 75 20 88 l4 22 -677 -1 c-520 -1 -689
-4 -725 -14z"/>
<path d="M28271 8008 c-5 -13 -17 -63 -27 -113 -9 -49 -23 -117 -31 -150 -7
-33 -18 -82 -23 -110 -5 -27 -16 -81 -25 -120 -21 -93 -35 -161 -45 -210 -10
-49 -24 -117 -45 -210 -9 -38 -20 -92 -25 -120 -5 -27 -17 -81 -25 -120 -9
-38 -29 -133 -45 -210 -16 -77 -37 -171 -45 -210 -9 -38 -18 -85 -22 -103 l-6
-32 394 2 393 3 7 30 c16 71 50 232 84 390 20 94 47 222 61 285 13 63 34 160
45 215 12 55 27 127 34 160 7 33 18 83 24 110 5 28 22 104 36 170 15 66 29
131 32 145 2 14 13 67 24 117 10 51 19 95 19 98 0 3 -176 5 -390 5 l-390 0 -9
-22z"/>
<path d="M29719 8015 c-91 -25 -191 -86 -270 -165 -105 -105 -139 -177 -185
-397 -20 -92 -39 -184 -44 -203 -5 -19 -14 -62 -21 -95 -6 -33 -17 -85 -24
-115 -7 -30 -18 -82 -25 -115 -6 -33 -17 -80 -23 -105 -7 -25 -12 -94 -12
-155 1 -94 4 -117 23 -156 31 -63 85 -124 136 -154 95 -55 94 -55 732 -53
l588 3 12 50 c6 28 17 75 23 105 6 30 23 104 36 165 14 60 23 115 21 122 -4
10 -74 13 -330 13 -227 0 -333 4 -351 12 -14 6 -35 27 -47 46 -18 29 -20 43
-14 100 4 37 11 83 16 102 5 19 14 62 20 95 6 33 17 89 25 125 7 36 19 92 26
125 17 83 52 141 107 176 l46 29 363 0 363 0 41 -41 c40 -40 41 -43 36 -93 -3
-28 -17 -105 -32 -171 -33 -154 -43 -199 -55 -260 -5 -27 -16 -81 -25 -120 -9
-38 -30 -137 -47 -220 -43 -209 -54 -264 -66 -312 -5 -23 -7 -44 -4 -48 3 -3
180 -5 393 -5 l389 0 5 23 c10 40 35 161 45 212 5 28 16 82 25 120 18 80 54
251 65 310 4 22 15 74 24 115 10 41 21 98 26 125 5 28 21 104 36 170 42 194
45 207 51 275 11 138 -63 274 -185 339 -76 41 -81 41 -992 40 -667 -1 -886 -4
-921 -14z"/>
<path d="M34106 8013 c-2 -10 -14 -63 -25 -118 -11 -55 -32 -154 -46 -220 -14
-66 -35 -163 -45 -215 -11 -52 -27 -126 -35 -165 -9 -38 -20 -90 -25 -115 -5
-25 -12 -58 -15 -75 -4 -16 -14 -64 -22 -105 -9 -41 -22 -104 -30 -140 -40
-188 -39 -266 5 -359 42 -91 132 -164 235 -189 32 -9 238 -12 702 -12 518 0
657 -3 660 -13 3 -7 0 -35 -5 -62 -6 -28 -15 -68 -19 -90 -5 -22 -21 -94 -35
-160 -50 -231 -58 -270 -60 -285 -1 -13 49 -15 383 -18 212 -1 388 1 393 6 8
8 57 213 78 327 5 28 19 93 30 145 12 52 28 129 37 170 16 82 24 119 48 225 9
39 20 93 25 120 9 47 33 158 66 305 8 36 19 88 24 115 5 28 16 82 25 120 9 39
20 90 25 115 29 137 52 245 70 325 28 126 80 372 80 379 0 3 -177 6 -394 6
l-394 0 -11 -57 c-6 -32 -15 -78 -21 -103 -5 -25 -25 -121 -45 -215 -55 -264
-105 -499 -132 -625 -13 -63 -29 -138 -34 -167 -5 -29 -13 -63 -19 -78 l-10
-25 -412 0 -413 0 -37 30 c-57 48 -57 79 7 365 9 39 20 93 25 120 4 28 20 104
35 170 14 66 35 163 45 215 11 52 26 127 35 165 8 39 20 93 25 120 6 28 13 58
16 68 5 16 -18 17 -390 17 -367 0 -395 -1 -400 -17z"/>
<path d="M3570 7176 c-88 -22 -180 -82 -180 -117 0 -10 -4 -21 -10 -24 -16
-10 -13 -809 3 -838 22 -40 61 -79 102 -99 92 -48 77 -47 1352 -48 1183 0
1257 2 1315 31 10 5 22 9 28 9 14 0 89 53 90 63 0 5 7 15 15 23 13 13 15 76
15 441 0 472 2 455 -68 503 -108 73 -44 70 -1400 69 -869 -1 -1230 -5 -1262
-13z"/>
<path d="M1956 6718 c-8 -111 -25 -372 -36 -578 -6 -102 -14 -261 -20 -355 -5
-93 -12 -227 -16 -297 l-6 -127 43 -3 44 -3 3 -248 c2 -188 -1 -253 -10 -266
-10 -13 -12 -61 -10 -180 l3 -161 300 0 300 0 -3 168 -4 167 -114 5 -115 5 -3
235 c-1 129 0 245 3 258 l5 22 315 0 315 0 -2 713 -3 712 -492 3 -491 2 -6
-72z"/>
<path d="M6800 6075 l0 -715 324 0 c286 0 325 -2 330 -16 3 -9 6 -120 6 -249
0 -180 -3 -235 -13 -243 -7 -6 -64 -13 -128 -14 l-114 -3 -3 -167 -2 -168 300
0 300 0 0 424 c0 373 2 425 15 430 18 7 17 95 -10 551 -8 149 -20 353 -25 455
-14 282 -21 383 -26 408 l-4 22 -475 0 -475 0 0 -715z"/>
<path d="M22285 5943 c-11 -3 -35 -17 -54 -32 l-34 -26 -241 -5 c-233 -5 -242
-6 -274 -29 -25 -18 -56 -68 -133 -223 -97 -194 -101 -200 -143 -219 -45 -20
-102 -82 -91 -99 4 -6 88 -10 217 -10 l211 0 111 82 c61 45 154 112 207 150
80 56 104 79 139 135 23 38 70 113 106 168 35 55 64 103 64 108 0 8 -53 8 -85
0z"/>
<path d="M3512 5138 l3 -713 430 0 430 0 0 710 0 710 -433 3 -432 2 2 -712z"/>
<path d="M5342 5138 l3 -713 435 0 435 0 3 693 c1 462 -1 699 -8 712 -10 18
-26 19 -440 20 l-430 0 2 -712z"/>
<path d="M37644 4971 c-18 -3 -43 -20 -59 -38 l-27 -33 -1204 0 c-1051 0
-1209 -2 -1241 -15 -23 -10 -137 -117 -323 -305 -224 -226 -294 -290 -313
-290 -14 0 -27 -6 -30 -14 -3 -8 -7 -295 -8 -637 l-1 -622 318 -318 319 -319
815 2 815 3 3 324 2 324 -37 -6 c-20 -4 -41 -13 -45 -21 -27 -48 -3 -46 -593
-46 -336 0 -564 4 -579 10 -14 5 -26 15 -26 23 0 7 -79 91 -175 188 l-175 175
0 322 0 322 161 158 c88 86 162 158 163 160 6 5 1609 2 1615 -4 3 -3 6 -436 6
-962 0 -627 3 -960 10 -964 6 -4 153 -8 328 -8 l317 0 0 1300 c0 715 -1 1299
-2 1299 -2 -1 -17 -4 -34 -8z"/>
<path d="M11879 4946 c-6 -13 -22 -29 -36 -35 -17 -8 -328 -11 -1084 -11 -935
0 -1064 -2 -1097 -16 -21 -8 -90 -67 -163 -140 -96 -95 -132 -124 -152 -124
-22 0 -27 -6 -32 -32 -3 -18 -6 -520 -8 -1115 -2 -894 0 -1084 11 -1088 8 -3
80 -5 160 -5 l147 0 163 163 162 162 0 808 c0 639 3 807 13 807 6 0 374 0 817
0 l805 1 152 -155 c147 -151 183 -198 183 -239 0 -29 -264 -286 -319 -310 -18
-8 -215 -13 -663 -17 -350 -3 -640 -9 -645 -13 -4 -5 -9 -132 -11 -283 l-3
-274 296 0 c290 0 296 0 313 -21 9 -12 29 -36 43 -53 15 -17 81 -98 148 -181
173 -215 204 -252 266 -327 l56 -68 404 0 c251 0 406 4 410 10 3 5 -27 49 -67
97 -41 49 -105 128 -143 177 -39 49 -82 103 -96 120 -67 80 -179 228 -179 237
0 5 39 9 88 9 l87 0 328 328 327 328 0 319 0 320 -323 322 c-178 178 -328 323
-335 323 -7 0 -17 -11 -23 -24z"/>
<path d="M15469 4946 c-6 -13 -22 -29 -36 -35 -17 -8 -286 -11 -924 -11 -789
0 -904 -2 -937 -15 -24 -11 -130 -111 -322 -307 -255 -259 -289 -291 -312
-286 -22 4 -27 1 -32 -24 -3 -16 -6 -304 -6 -640 l-1 -612 318 -318 319 -318
979 0 980 0 328 328 328 328 -3 647 -3 648 -321 319 c-176 176 -326 320 -332
320 -7 0 -17 -11 -23 -24z m-131 -791 l162 -166 0 -284 c0 -267 1 -287 21
-324 18 -36 19 -42 6 -73 -20 -48 -283 -314 -329 -333 -32 -13 -121 -15 -647
-15 -618 0 -661 2 -661 36 0 8 -79 93 -175 191 l-174 178 -1 316 0 316 161
159 c88 88 166 161 174 164 8 3 304 4 657 3 l643 -2 163 -166z"/>
<path d="M19376 4946 c-3 -13 -14 -28 -23 -32 -10 -5 -639 -12 -1398 -16 -759
-4 -1397 -7 -1418 -8 -29 -2 -38 -7 -42 -23 -3 -12 -6 -574 -8 -1249 -2 -1015
0 -1229 11 -1233 8 -3 664 -5 1460 -5 l1446 0 163 163 164 162 -1 977 0 976
-133 130 c-197 193 -210 203 -221 158z m-299 -630 c2 -2 7 -55 10 -117 4 -89
10 -121 25 -147 25 -40 18 -75 -19 -99 -25 -17 -85 -19 -783 -25 -415 -4 -774
-8 -796 -9 l-42 -2 -4 -276 c-2 -152 -3 -279 -1 -283 3 -5 366 -8 807 -8 l803
0 7 -52 c3 -29 6 -81 6 -116 0 -47 6 -73 23 -102 20 -37 21 -42 7 -67 -9 -15
-27 -33 -40 -40 -20 -10 -230 -13 -951 -13 -808 0 -928 2 -939 15 -7 8 -10 21
-7 29 4 10 -3 17 -24 21 l-29 7 0 643 c0 420 3 644 10 647 15 5 1932 -1 1937
-6z"/>
<path d="M22649 4946 c-6 -13 -22 -29 -36 -35 -17 -8 -285 -11 -921 -11 -828
-1 -900 -2 -934 -18 -23 -10 -151 -130 -327 -306 -251 -250 -293 -288 -315
-284 -19 4 -26 0 -30 -16 -3 -12 -6 -301 -7 -641 l-1 -620 324 -317 323 -317
975 -1 974 0 323 322 323 323 0 655 0 656 -318 317 c-175 174 -324 317 -330
317 -7 0 -17 -11 -23 -24z m-137 -788 l167 -163 1 -290 c1 -236 3 -294 15
-312 26 -39 19 -85 -19 -129 -76 -88 -269 -270 -304 -286 -34 -16 -91 -17
-644 -18 -371 0 -617 4 -632 10 -14 5 -26 16 -26 24 0 8 -76 92 -170 188
l-169 173 -1 325 0 325 158 157 c86 85 163 157 170 159 6 2 299 3 650 2 l637
-2 167 -163z"/>
<path d="M26554 4946 c-3 -14 -13 -28 -22 -33 -10 -4 -640 -11 -1402 -15
-1355 -6 -1453 -7 -1464 -18 -3 -3 -6 -57 -7 -119 l-1 -114 161 -161 161 -161
486 -2 c268 -1 489 -5 493 -8 3 -4 6 -437 6 -963 0 -627 3 -960 10 -964 6 -4
76 -8 156 -8 l147 0 163 163 164 162 2 804 c2 442 5 806 7 808 2 2 283 4 625
3 341 0 632 2 646 6 l25 6 0 162 0 161 -160 158 c-88 86 -167 157 -175 157 -8
0 -17 -11 -21 -24z"/>
<path d="M30414 4935 l-31 -35 -1364 0 c-1318 0 -1365 -1 -1404 -19 -22 -11
-96 -74 -165 -140 -96 -93 -131 -120 -152 -121 -34 0 -35 -5 -43 -166 -5 -108
-4 -122 11 -128 10 -4 303 -6 653 -6 l636 1 5 -608 5 -608 23 -25 c12 -13 22
-29 22 -34 0 -9 -34 -72 -42 -78 -2 -1 -212 -4 -468 -7 -367 -5 -470 -9 -490
-20 -14 -7 -84 -71 -156 -142 -101 -100 -137 -129 -157 -129 -32 0 -34 -5 -42
-161 -5 -102 -4 -117 10 -123 9 -3 667 -6 1463 -6 l1446 0 163 162 163 162 0
163 0 163 -26 0 c-17 0 -37 -12 -58 -35 l-32 -35 -546 0 c-301 0 -553 3 -562
6 -9 3 -16 17 -16 29 0 16 -8 26 -25 32 l-26 8 1 640 c0 351 2 640 4 642 2 2
221 5 487 6 l484 2 154 157 c85 86 158 163 162 170 5 7 9 82 9 166 l0 152 -32
0 c-25 0 -41 -9 -64 -35z"/>
<path d="M33736 4945 c-4 -15 -18 -30 -32 -35 -16 -6 -429 -10 -1086 -10
-1044 0 -1062 0 -1103 -20 -28 -13 -137 -117 -322 -305 -221 -225 -285 -285
-305 -285 -14 0 -28 -7 -32 -15 -3 -8 -6 -294 -6 -636 l-2 -622 319 -319 318
-318 1139 0 1140 0 163 162 163 162 0 163 0 163 -26 0 c-17 0 -37 -12 -58 -35
l-32 -35 -1042 0 c-652 0 -1050 4 -1066 10 -14 5 -26 15 -26 23 0 7 -79 91
-175 188 l-175 175 1 324 1 325 163 158 162 157 1134 3 1134 2 3 165 3 164
-143 143 c-117 117 -182 173 -203 173 -2 0 -6 -11 -9 -25z"/>
<path d="M5127 4143 c-4 -3 -7 -269 -7 -590 0 -458 3 -585 13 -588 16 -6 1550
-25 1556 -20 4 5 -12 113 -34 230 -7 39 -18 103 -24 143 -6 39 -16 105 -22
145 -6 39 -17 101 -24 137 -7 36 -18 98 -24 138 -6 39 -16 105 -22 145 -6 39
-17 100 -25 134 -8 34 -14 75 -14 91 0 18 -6 32 -16 36 -21 8 -1349 8 -1357
-1z"/>
<path d="M3136 4112 c-5 -9 -26 -126 -56 -320 -11 -68 -21 -131 -24 -140 -3
-10 -7 -38 -10 -64 -3 -26 -10 -66 -15 -90 -5 -24 -15 -79 -21 -123 -11 -84
-21 -141 -40 -240 -20 -107 -31 -208 -23 -215 6 -6 1028 1 1526 9 l37 1 -2
593 -3 592 -682 3 c-375 1 -684 -2 -687 -6z"/>
<path d="M2522 2313 l3 -438 995 0 995 0 0 435 0 435 -998 3 -997 2 2 -437z"/>
<path d="M5108 2722 c-2 -4 -2 -202 0 -439 l2 -433 1005 0 1005 0 1 408 c1
224 3 417 4 430 1 14 -5 27 -16 33 -21 11 -1996 13 -2001 1z"/>
</g>
</svg>
